<?xml version="1.0" encoding="UTF-8" standalone="no"?>
<svg
   width="256"
   height="256"
   viewBox="0 0 256 256"
   version="1.1"
   xml:space="preserve"
   style="clip-rule:evenodd;fill-rule:evenodd;stroke-linejoin:round;stroke-miterlimit:1.41421"
   id="svg22"
   sodipodi:docname="logo.svg"
   inkscape:version="1.1.2 (0a00cf5339, 2022-02-04)"
   inkscape:export-filename="/home/stefano/fabio/insigno_frontend/meta/ìriempito.png"
   inkscape:export-xdpi="384"
   inkscape:export-ydpi="384"
   xmlns:inkscape="http://www.inkscape.org/namespaces/inkscape"
   xmlns:sodipodi="http://sodipodi.sourceforge.net/DTD/sodipodi-0.dtd"
   xmlns="http://www.w3.org/2000/svg"
   xmlns:svg="http://www.w3.org/2000/svg"><defs
   id="defs26" /><sodipodi:namedview
   id="namedview24"
   pagecolor="#ffffff"
   bordercolor="#666666"
   borderopacity="1.0"
   inkscape:pageshadow="2"
   inkscape:pageopacity="0.0"
   inkscape:pagecheckerboard="0"
   showgrid="false"
   inkscape:zoom="1.4142136"
   inkscape:cx="106.77312"
   inkscape:cy="85.559921"
   inkscape:window-width="1108"
   inkscape:window-height="457"
   inkscape:window-x="1953"
   inkscape:window-y="313"
   inkscape:window-maximized="0"
   inkscape:current-layer="svg22"
   showguides="true"
   inkscape:guide-bbox="true"
   width="300px"
   lock-margins="true"
   fit-margin-top="2"
   fit-margin-left="2"
   fit-margin-right="2"
   fit-margin-bottom="2"><sodipodi:guide
     position="110.6177,155.23728"
     orientation="-1,0"
     id="guide15135"
     inkscape:label=""
     inkscape:locked="false"
     inkscape:color="rgb(0,0,255)" /><sodipodi:guide
     position="120.2059,177.73442"
     orientation="-1,0"
     id="guide15139"
     inkscape:label=""
     inkscape:locked="false"
     inkscape:color="rgb(0,0,255)" /><sodipodi:guide
     position="135.79409,175.38983"
     orientation="-1,0"
     id="guide15141"
     inkscape:label=""
     inkscape:locked="false"
     inkscape:color="rgb(0,0,255)" /><sodipodi:guide
     position="145.38229,177.33437"
     orientation="-1,0"
     id="guide15143"
     inkscape:label=""
     inkscape:locked="false"
     inkscape:color="rgb(0,0,255)" /><sodipodi:guide
     position="108.6875,96.138978"
     orientation="0,1"
     id="guide15503"
     inkscape:label=""
     inkscape:locked="false"
     inkscape:color="rgb(0,0,255)" /><sodipodi:guide
     position="99.029502,140.55388"
     orientation="0,1"
     id="guide15543"
     inkscape:label=""
     inkscape:locked="false"
     inkscape:color="rgb(0,0,255)" /></sodipodi:namedview>
    <path
   d="m 99.029504,161.79891 c 0,5.31126 4.345576,9.65684 9.656826,9.65684 h 38.62733 c 5.31126,0 9.65683,-4.34558 9.65683,-9.65684 V 103.85792 H 99.029504 Z m 9.656826,-48.28416 h 38.62733 v 48.28416 h -38.62733 z m 36.21312,-24.142082 -4.82841,-4.828416 h -24.14208 l -4.82842,4.828416 H 94.201087 v 9.656833 h 67.597823 v -9.656833 z"
   id="path110-7"
   style="clip-rule:evenodd;fill:#325b18;fill-rule:evenodd;stroke-width:4.82842;stroke-linejoin:round;stroke-miterlimit:1.41421;fill-opacity:1" /><path
   id="path2093-5"
   style="clip-rule:evenodd;fill:#80b900;fill-opacity:1;fill-rule:evenodd;stroke-width:4.82842;stroke-linejoin:round;stroke-miterlimit:1.41421"
   d="M 115.92969 84.544922 L 111.09961 89.373047 L 94.201172 89.373047 L 94.201172 99.029297 L 161.79883 99.029297 L 161.79883 89.373047 L 144.90039 89.373047 L 140.07031 84.544922 L 115.92969 84.544922 z M 99.029297 103.85742 L 99.029297 161.79883 C 99.029297 167.11009 103.3743 171.45508 108.68555 171.45508 L 147.31445 171.45508 C 152.62571 171.45508 156.9707 167.11009 156.9707 161.79883 L 156.9707 103.85742 L 99.029297 103.85742 z M 110.61719 115.44531 L 120.20508 115.44531 L 120.20508 159.86133 L 110.61719 159.86133 L 110.61719 115.44531 z M 135.79492 115.44531 L 145.38281 115.44531 L 145.38281 159.86133 L 135.79492 159.86133 L 135.79492 115.44531 z " /><path
   id="path2"
   style="fill:#8fce0f;fill-opacity:1;fill-rule:nonzero"
   d="m 94.09366,37.114807 c -14.90823,-0.35423 -28.31631,12.83582 -30.89844,31.44532 -28.548,-0.982 -45.93414,34.976313 -27.49414,59.445313 -18.301,24.291 -1.27486,60.43336 27.49414,59.44336 2.451,17.615 15.07991,31.44336 30.37891,31.44336 16.8898,0 30.63521,-16.70965 30.83203,-37.33399 h -9.07422 c -0.1824,15.61918 -9.86537,28.25782 -21.75781,28.25782 -9.847,0 -18.15013,-8.68235 -20.82813,-20.52735 v -36.05468 h 16.18945 c 0.54147,1.39633 1.47393,2.59049 2.65235,3.47265 -0.0238,-4.13144 -0.0243,-8.35303 -0.0137,-12.60937 -1.1721,0.88117 -2.09924,2.07326 -2.63868,3.46484 H 67.07214 v 30.34766 c -15.984,3.235 -29.86914,-10.25653 -29.86914,-27.01954 0,-9.54599 4.59338,-18.03676 11.23438,-22.88476 -4.982,-3.638 -9.00274,-9.49452 -10.55274,-16.60352 h 11.50977 v 39.54493 c -8.115,3.141 -5.84506,15.21093 2.83594,15.21093 8.693,0 10.93289,-12.07593 2.83789,-15.21093 v -39.54493 h 36.66992 c 0.006,-1.90144 0.0133,-3.80919 0.0137,-5.67187 H 81.18741 v -7.162113 c 3.49116,-1.35352 5.04754,-4.3499 5.01367,-7.32813 v -0.24023 c -0.15624,-3.87414 -3.00669,-7.64258 -7.85156,-7.64258 -8.682,0 -10.94694,12.06794 -2.83594,15.21094 v 7.162113 H 37.22647 c -0.434,-20.176003 18.42025,-33.555723 34.90625,-26.011723 -2.25662,-17.60063 8.05489,-33.29743 21.03516,-33.52344 1.85432,-0.0323 3.76484,0.24992 5.69922,0.88867 0.001,10.13 0,20.19052 0,30.35352 v 2.875 h 4.83203 c 0.29939,0 0.57931,-0.006 0.84179,-0.0176 v -30.1582 c 6.3894,4.93586 10.70817,14.02848 10.79297,24.44922 h 9.08008 c -0.10531,-15.96252 -8.34343,-29.56573 -19.875,-34.96289 -3.48562,-1.62413 -7.00495,-2.42607 -10.44531,-2.50782 z m 69.66991,0.0312 c -15.95368,-0.55002 -32.01305,13.84384 -32.14453,37.43946 h 9.07617 c 0.11786,-15.69364 9.82976,-28.41407 21.76172,-28.41406 9.849,0 18.15108,8.68034 20.83008,20.52734 v 36.052733 h -16.1875 c -0.50191,-1.29326 -1.24727,-2.29448 -2.11719,-3.076173 v 11.828133 c 0.87022,-0.78231 1.6145,-1.78463 2.11719,-3.08008 h 21.86133 v -5.67378 -24.675783 c 16.044,-3.247 29.87109,10.32248 29.87109,27.021483 0,9.581 -4.61338,18.04677 -11.23438,22.88477 4.994,3.65 9.00879,9.50656 10.55079,16.60156 H 206.64052 V 105.0406 c 2.944,-1.141 5.04297,-3.98304 5.04297,-7.332043 0,-4.352 -3.5269,-7.8789 -7.8789,-7.8789 -4.353,0 -7.88086,3.5259 -7.88086,7.8789 0,3.349003 2.09695,6.191043 5.04297,7.332043 v 39.54296 h -35.98438 v 5.67383 h 9.86523 v 7.16016 c -8.131,3.152 -5.82906,15.21094 2.83594,15.21094 8.682,0 10.94699,-12.06894 2.83399,-15.21094 v -7.16016 h 38.28711 c 0.436,20.188 -18.4113,33.54077 -34.9043,26.00977 2.611,20.342 -11.44647,37.70381 -26.73047,32.63281 v -28.14062 c -2.27088,0.79548 -4.1543,0.79882 -4.1543,0.79882 h -1.52148 v 24.29102 c -6.35855,-4.9115 -10.65939,-13.93474 -10.78711,-24.29102 h -9.08008 c 0.21128,21.64388 14.90965,37.31055 30.83008,37.31055 15.244,0 27.90686,-13.62441 30.38086,-31.44141 29.782,0.678 45.30214,-35.81531 27.49414,-59.44531 4.726,-6.273 7.57422,-14.22676 7.57422,-22.88476 0,-20.267003 -15.61836,-37.058553 -35.06836,-36.560553 -0.646,-4.636 -1.98695,-8.97495 -3.87695,-12.87695 -6.01575,-12.42863 -15.58567,-18.1823 -25.19727,-18.51368 z m -2.21094,35.30469 c -3.03473,-0.0895 -6.11867,1.4745 -7.49023,5.01563 h -5.74805 c 8e-5,1.42575 0.0188,2.8457 4.70117,2.8457 h 11.9668 c 0,0 2.48227,0.003 4.12109,1.66797 0.10532,-0.53043 0.17188,-1.08462 0.17188,-1.67578 0,-4.89038 -3.82086,-7.73846 -7.72266,-7.85352 z m 23.375,47.673833 c -3.03361,-0.0947 -6.11773,1.4668 -7.49804,5.02148 h -12.44727 v 5.67188 h 12.44727 c 3.15,8.11 15.21484,5.84706 15.21484,-2.83594 0,-4.87631 -3.81644,-7.7356 -7.7168,-7.85742 z m -113.81835,0.0234 c -3.9009,0.11887 -7.71875,2.97379 -7.71875,7.85742 0,8.694 12.07589,10.92994 15.21289,2.83594 h 13.0293 c 0.0118,-1.90404 0.0231,-3.77769 0.0352,-5.67383 H 78.60346 c -1.3755,-3.549 -4.4601,-5.11199 -7.49414,-5.01953 z m 20.61524,48.22851 c -2.9056,1.16013 -4.96485,3.98663 -4.96485,7.30664 0,7.62382 9.28377,10.27922 13.68164,5.36133 -3.54333,-0.98616 -8.70898,-3.86166 -8.70898,-12.24414 -0.003,-0.13966 -0.005,-0.28382 -0.008,-0.42383 z" /><path
   d="M 44.322495,34.950747 H 160.20448 V 150.83273 H 44.322495 Z"
   fill="none"
   id="path108-6"
   style="clip-rule:evenodd;fill-rule:evenodd;stroke-width:4.82842;stroke-linejoin:round;stroke-miterlimit:1.41421" />
    
    
    
    
    
    
    
    
    
</svg>
