<?xml version="1.0" encoding="UTF-8" standalone="no"?>
<svg
   width="271.09637"
   height="224.57048"
   viewBox="0 0 271.09637 224.57048"
   version="1.1"
   xml:space="preserve"
   style="clip-rule:evenodd;fill-rule:evenodd;stroke-linejoin:round;stroke-miterlimit:1.41421"
   id="svg22"
   sodipodi:docname="mindshub_original.svg"
   inkscape:version="1.2.2 (b0a8486541, 2022-12-01)"
   xmlns:inkscape="http://www.inkscape.org/namespaces/inkscape"
   xmlns:sodipodi="http://sodipodi.sourceforge.net/DTD/sodipodi-0.dtd"
   xmlns="http://www.w3.org/2000/svg"
   xmlns:svg="http://www.w3.org/2000/svg"><defs
   id="defs26" /><sodipodi:namedview
   id="namedview24"
   pagecolor="#ffffff"
   bordercolor="#000000"
   borderopacity="0.25"
   inkscape:showpageshadow="2"
   inkscape:pageopacity="0.0"
   inkscape:pagecheckerboard="0"
   inkscape:deskcolor="#d1d1d1"
   showgrid="false"
   inkscape:zoom="3.5428649"
   inkscape:cx="272.37844"
   inkscape:cy="131.95536"
   inkscape:window-width="2560"
   inkscape:window-height="1517"
   inkscape:window-x="0"
   inkscape:window-y="0"
   inkscape:window-maximized="1"
   inkscape:current-layer="svg22" />
    <path
   d="m 106.42018,40.328853 v 23.797 c -2.066,0.8 -3.696,2.432 -4.499,4.496 h -13.181 v -7.161 c 8.13,-3.152 5.83,-15.212 -2.837,-15.212 -8.682,0 -10.947,12.069 -2.836,15.212 v 7.161 h -38.287 c -0.434,-20.176 18.42,-33.555 34.906,-26.011 -2.579,-20.115 11.258,-37.744 26.733,-32.634 0.001,10.13 0.001,20.189 0.001,30.352 m 16.483,-2.545 c 0,7.62 0,44.554 0,50.276 h -36.747 c -3.144,-8.112 -15.213,-5.845 -15.213,2.837 0,8.694 12.076,10.929997 15.213,2.836 h 36.747 v 42.004997 h -13.38 c -1.139,-2.946 -3.982,-5.042 -7.331,-5.042 -4.352,0 -7.88,3.527 -7.88,7.879 0,8.695 12.08,10.932 15.21,2.836 h 13.38 v 2.597 c 0,15.825 -9.769,28.7 -21.775,28.7 -9.847,0 -18.15,-8.682 -20.828,-20.527 v -36.054 h 16.189 c 1.142,2.945 3.984,5.043 7.333,5.043 4.352,0 7.879,-3.528 7.879,-7.88 0,-4.352 -3.527,-7.879 -7.879,-7.879 -3.349,0 -6.191,2.097 -7.333,5.043 -5.088,0 -17.406,0 -21.863,0 0,10.163 0,20.22 0,30.349 -15.984,3.235 -29.87,-10.257 -29.87,-27.02 0,-9.546 4.594,-18.037997 11.235,-22.885997 -4.982,-3.638 -9.002,-9.493 -10.552,-16.602 h 11.51 v 39.543997 c -8.115,3.141 -5.845,15.212 2.836,15.212 8.693,0 10.932,-12.077 2.837,-15.212 V 74.293853 c 7.258,0 31.436,0 39.3,0 3.148,8.112 15.216,5.845 15.216,-2.836 0,-3.35 -2.099,-6.191 -5.044,-7.332 0,-5.165 0,-45.847 0,-51.097 6.453,4.985 10.81,14.204 10.81,24.755 z m -52.155,-6.332 c -28.548,-0.982 -45.935,34.976 -27.495,59.445 -18.301,24.290997 -1.274,60.433997 27.495,59.443997 2.451,17.615 15.08,31.443 30.379,31.443 17.012,0 30.85,-16.946 30.85,-37.776 0,-4.004 0,-2.024 0,-8.271 0,-13.866 0,-94.879997 0,-97.952997 0,-16.096 -8.279,-29.836 -19.885,-35.268 -18.59,-8.662 -38.166,6.032 -41.344,28.936 z"
   style="fill:#e74c3c;fill-rule:nonzero"
   id="path2" />
    <path
   d="m 164.72218,117.66585 c 2.065,-0.8 3.695,-2.432 4.496,-4.496 h 13.182 v 7.161 c -8.131,3.152 -5.829,15.211 2.836,15.211 8.682,0 10.948,-12.069 2.835,-15.211 v -7.161 h 38.287 c 0.436,20.188 -18.413,33.542 -34.906,26.011 2.611,20.342 -11.446,37.703 -26.73,32.632 0,-12.479 0,-43.541 0,-54.147 m -16.486,26.34 c 0,-7.617 0,-44.554997 0,-50.273997 h 36.747 c 3.15,8.109997 15.215,5.846 15.215,-2.837 0,-8.669 -12.06,-10.961 -15.215,-2.836 h -36.747 c 0,-7.597 0,-33.134 0,-42.006 h 13.38 c 3.143,8.113 15.212,5.845 15.212,-2.836 0,-8.694 -12.077,-10.931 -15.212,-2.837 h -13.38 v -2.596 c 0,-15.826 9.769,-28.7 21.774,-28.7 9.849,0 18.15,8.68 20.829,20.527 v 36.053 h -16.186 c -3.149,-8.114 -15.214,-5.842 -15.214,2.836 0,8.669 12.06,10.964 15.214,2.836 5.086,0 17.4,0 21.86,0 v -5.673 -24.676 c 16.044,-3.247 29.871,10.322 29.871,27.021 0,9.581 -4.612,18.047 -11.233,22.885 4.994,3.65 9.008,9.506997 10.55,16.601997 h -11.507 V 67.953853 c 2.944,-1.141 5.043,-3.983 5.043,-7.332 0,-4.352 -3.528,-7.88 -7.88,-7.88 -4.353,0 -7.881,3.527 -7.881,7.88 0,3.349 2.097,6.191 5.043,7.332 v 39.542997 c -7.231,0 -31.46,0 -39.302,0 -3.145,-8.116997 -15.212,-5.841 -15.212,2.837 0,3.349 2.096,6.191 5.042,7.333 0,17.043 0,34.017 0,51.095 -6.455,-4.986 -10.811,-14.202 -10.811,-24.756 z m 52.155,6.335 c 29.782,0.678 45.302,-35.816 27.494,-59.445997 4.726,-6.273 7.573,-14.227 7.573,-22.885 0,-20.267 -15.617,-37.058 -35.067,-36.56 -0.646,-4.636 -1.988,-8.976 -3.878,-12.878 -16.042,-33.143 -57.353,-18.81799998 -57.353,19.212 0,4.003 0,2.023 0,8.269 0,13.868 0,94.879997 0,97.952997 0,21.888 14.814,37.776 30.85,37.776 15.244,0 27.907,-13.624 30.381,-31.441 z"
   style="fill:#e74c3c;fill-rule:nonzero"
   id="path4" />
    <path
   d="m 13.35679,198.9861 c -1.34497,0.75544 -2.41244,1.82972 -3.20923,3.21602 -0.79735,1.3863 -1.19943,2.87681 -1.19943,4.47095 v 17.89739 H 0 v -17.89739 c 0,-4.87246 1.74648,-9.07328 5.2332,-12.60134 3.48671,-3.52805 7.70735,-5.29548 12.66362,-5.29548 h 17.76544 v 35.79421 h -8.81674 v -26.84551 h -4.54004 v 26.84551 h -8.94869 z"
   style="fill:#e74c3c;fill-rule:nonzero;stroke-width:0.566301"
   id="path6" />
    <rect
   x="37.180504"
   y="188.77628"
   width="8.9486933"
   height="35.794205"
   style="fill:#e74c3c;stroke-width:0.566301"
   id="rect8" />
    <path
   d="M 67.42893,197.72495 H 58.4808 v 26.84551 h -8.94869 v -35.79421 h 17.89682 c 4.87302,0 9.05233,1.76743 12.53905,5.29548 3.48672,3.52806 5.22639,7.72832 5.22639,12.60134 v 17.89739 h -8.81675 v -17.89739 c 0,-2.43283 -0.88739,-4.53324 -2.64802,-6.30067 -1.76743,-1.76743 -3.86727,-2.64745 -6.30067,-2.64745"
   style="fill:#e74c3c;fill-rule:nonzero;stroke-width:0.566301"
   id="path10" />
    <path
   d="m 113.55813,215.62177 v -8.9487 H 100.0694 c -1.26171,0 -2.30824,0.44398 -3.14693,1.32402 -0.83869,0.88059 -1.26116,1.91296 -1.26116,3.08464 0,1.26172 0.42303,2.33599 1.26116,3.21602 0.83869,0.88003 1.88522,1.32402 3.14693,1.32402 z m 8.81675,8.94869 H 100.0694 c -3.69455,0 -6.84828,-1.30306 -9.4476,-3.90974 -2.60612,-2.60613 -3.90918,-5.7944 -3.90918,-9.57899 0,-3.61131 1.30306,-6.73729 3.90918,-9.38532 2.59932,-2.64802 5.75305,-3.97146 9.4476,-3.97146 h 13.48873 v -8.94813 h 8.81675 z"
   style="fill:#e74c3c;fill-rule:nonzero;stroke-width:0.566301"
   id="path12" />
    <path
   d="m 135.10816,211.08173 c -3.10502,0 -5.75305,-1.06749 -7.93614,-3.20923 -2.18366,-2.14176 -3.27832,-4.76882 -3.27832,-7.88122 0,-3.02235 1.09523,-5.64886 3.27832,-7.87442 2.18309,-2.22499 4.83112,-3.34061 7.93614,-3.34061 h 24.57918 v 8.94813 h -24.57918 c -1.51089,0 -2.26633,0.75544 -2.26633,2.2669 0,0.58895 0.20783,1.09523 0.63086,1.51769 0.41623,0.41567 0.96328,0.62407 1.63604,0.62407 h 13.35678 c 3.02915,0 5.63527,1.11561 7.81892,3.3406 2.18309,2.2318 3.27153,4.85208 3.27153,7.88122 0,3.1056 -1.08844,5.75305 -3.27153,7.93671 -2.18365,2.18309 -4.78977,3.27889 -7.81892,3.27889 H 123.8937 v -9.07328 h 24.57181 c 0.50571,0 0.99103,-0.20783 1.4554,-0.63086 0.45757,-0.42303 0.69315,-0.92194 0.69315,-1.5109 0,-0.58895 -0.23558,-1.11618 -0.69315,-1.58054 -0.46437,-0.45757 -0.94969,-0.69315 -1.4554,-0.69315 z"
   style="fill:#e74c3c;fill-rule:nonzero;stroke-width:0.566301"
   id="path14" />
    <path
   d="m 170.02177,202.13304 h 17.89682 v -13.35679 h 8.81674 v 35.79421 h -8.81674 v -13.48873 h -17.89682 v 13.48873 h -8.9487 v -35.79421 h 8.9487 z"
   style="fill:#e74c3c;fill-rule:nonzero;stroke-width:0.566301"
   id="path16" />
    <path
   d="m 216.15041,215.62177 h 8.94869 v -26.84552 h 8.81674 v 35.79421 h -17.76543 c -4.95571,0 -9.17691,-1.74704 -12.66363,-5.23319 -3.48672,-3.48672 -5.23319,-7.70793 -5.23319,-12.66363 v -17.89682 h 8.94869 v 17.89682 c 0,2.52344 0.85964,4.64423 2.58517,6.36296 1.71872,1.72552 3.84008,2.58517 6.36296,2.58517"
   style="fill:#e74c3c;fill-rule:nonzero;stroke-width:0.566301"
   id="path18" />
    <path
   d="m 235.4341,224.57046 v -35.79421 h 24.57181 c 3.02915,0 5.63527,1.11618 7.81892,3.34061 2.18309,2.225 3.27153,4.85207 3.27153,7.87442 0,2.52287 -0.71411,4.74787 -2.14176,6.68179 1.42765,2.01716 2.14176,4.24216 2.14176,6.68179 0,3.1056 -1.08844,5.75305 -3.27153,7.93671 -2.18365,2.18309 -4.78977,3.27889 -7.81892,3.27889 z m 8.94813,-9.07328 h 15.62368 c 0.5057,0 0.99103,-0.18745 1.45539,-0.56857 0.45758,-0.38112 0.69316,-0.90098 0.69316,-1.57319 0,-1.34496 -0.63086,-2.10041 -1.89201,-2.27369 h -15.87966 v 4.41545 z m 0,-13.36414 h 15.62368 c 0.5057,0 0.99103,-0.20784 1.45539,-0.62407 0.45758,-0.42303 0.69316,-0.92874 0.69316,-1.51769 0,-0.58215 -0.23558,-1.10882 -0.69316,-1.57375 -0.46436,-0.45757 -0.94969,-0.69315 -1.45539,-0.69315 h -15.62368 z"
   style="fill:#e74c3c;fill-rule:nonzero;stroke-width:0.566301"
   id="path20" />
</svg>
